<?xml version="1.0" encoding="UTF-8"?>
<!-- Liquid glass macOS-style icon with enlarged classic SBB watch face (1024x1024) -->
<svg width="1024" height="1024" viewBox="0 0 1024 1024" fill="none" xmlns="http://www.w3.org/2000/svg">
  <defs>
    <!-- Background glass panel -->
    <radialGradient id="bgGrad" cx="0" cy="0" r="1" gradientUnits="userSpaceOnUse" gradientTransform="translate(512 420) rotate(90) scale(520 520)">
      <stop offset="0%" stop-color="#FFF9F3" stop-opacity="1"/>
      <stop offset="28%" stop-color="#FFE0C2" stop-opacity="0.98"/>
      <stop offset="58%" stop-color="#FFB066" stop-opacity="0.97"/>
      <stop offset="80%" stop-color="#FF861C" stop-opacity="0.97"/>
      <stop offset="100%" stop-color="#FF7300" stop-opacity="0.98"/>
    </radialGradient>
    <radialGradient id="bgSpec" cx="0" cy="0" r="1" gradientUnits="userSpaceOnUse" gradientTransform="translate(360 260) rotate(45) scale(520 420)">
      <stop offset="0%" stop-color="#FFFFFF" stop-opacity="0.85"/>
      <stop offset="45%" stop-color="#FFFFFF" stop-opacity="0.25"/>
      <stop offset="100%" stop-color="#FFFFFF" stop-opacity="0"/>
    </radialGradient>
    <radialGradient id="centerGlow" cx="0" cy="0" r="1" gradientUnits="userSpaceOnUse" gradientTransform="translate(512 420) rotate(90) scale(520 520)">
      <stop offset="0%" stop-color="#FFFFFF" stop-opacity="0.95"/>
      <stop offset="60%" stop-color="#FFFFFF" stop-opacity="0.18"/>
      <stop offset="100%" stop-color="#FFFFFF" stop-opacity="0"/>
    </radialGradient>
    <linearGradient id="edgeGlow" x1="0" y1="0" x2="0" y2="1024" gradientUnits="userSpaceOnUse">
      <stop offset="0%" stop-color="#FFFFFF" stop-opacity="0.9"/>
      <stop offset="12%" stop-color="#FFFFFF" stop-opacity="0.38"/>
      <stop offset="88%" stop-color="#FFFFFF" stop-opacity="0.06"/>
      <stop offset="100%" stop-color="#FFFFFF" stop-opacity="0.32"/>
    </linearGradient>
    <filter id="innerShadow" x="0" y="0" width="1024" height="1024" filterUnits="userSpaceOnUse" color-interpolation-filters="sRGB">
      <feOffset dy="6"/>
      <feGaussianBlur stdDeviation="28" result="blur"/>
      <feComposite in="SourceGraphic" in2="blur" operator="arithmetic" k2="-1" k3="1"/>
      <feColorMatrix type="matrix" values="0 0 0 0 0  0 0 0 0 0  0 0 0 0 0  0 0 0 0.22 0"/>
      <feBlend in2="SourceGraphic" mode="normal"/>
    </filter>
    <!-- Dial specific -->
    <radialGradient id="dialGrad" cx="0" cy="0" r="1" gradientUnits="userSpaceOnUse" gradientTransform="translate(512 512) rotate(90) scale(360 360)">
      <stop offset="0%" stop-color="#FFFFFF"/>
      <stop offset="70%" stop-color="#F8FAFC"/>
      <stop offset="100%" stop-color="#ECF0F3"/>
    </radialGradient>
    <radialGradient id="dialInnerShadow" cx="0" cy="0" r="1" gradientUnits="userSpaceOnUse" gradientTransform="translate(512 512) rotate(90) scale(360 360)">
      <stop offset="75%" stop-color="#000000" stop-opacity="0"/>
      <stop offset="100%" stop-color="#000000" stop-opacity="0.15"/>
    </radialGradient>
    <linearGradient id="bezelGrad" x1="132" y1="132" x2="892" y2="892" gradientUnits="userSpaceOnUse">
      <stop offset="0%" stop-color="#FFE6D2" stop-opacity="0.95"/>
      <stop offset="35%" stop-color="#FFB36A" stop-opacity="0.95"/>
      <stop offset="65%" stop-color="#FF7A00" stop-opacity="0.98"/>
      <stop offset="100%" stop-color="#D45500" stop-opacity="0.95"/>
    </linearGradient>
    <radialGradient id="bezelSheen" cx="0" cy="0" r="1" gradientUnits="userSpaceOnUse" gradientTransform="translate(420 340) rotate(45) scale(360 300)">
      <stop offset="0%" stop-color="#FFFFFF" stop-opacity="0.85"/>
      <stop offset="40%" stop-color="#FFFFFF" stop-opacity="0.25"/>
      <stop offset="100%" stop-color="#FFFFFF" stop-opacity="0"/>
    </radialGradient>
    <linearGradient id="handHour" x1="512" y1="512" x2="512" y2="332" gradientUnits="userSpaceOnUse">
      <stop offset="0%" stop-color="#1B1F24"/>
      <stop offset="100%" stop-color="#060708"/>
    </linearGradient>
    <linearGradient id="handMinute" x1="512" y1="512" x2="512" y2="212" gradientUnits="userSpaceOnUse">
      <stop offset="0%" stop-color="#242A31"/>
      <stop offset="100%" stop-color="#090B0D"/>
    </linearGradient>
    <linearGradient id="secondHand" x1="512" y1="512" x2="512" y2="160" gradientUnits="userSpaceOnUse">
      <stop offset="0%" stop-color="#FFB36A"/>
      <stop offset="55%" stop-color="#FF7A00"/>
      <stop offset="100%" stop-color="#E05A00"/>
    </linearGradient>
    <radialGradient id="specular" cx="0" cy="0" r="1" gradientUnits="userSpaceOnUse" gradientTransform="translate(380 300) rotate(45) scale(420 320)">
      <stop offset="0%" stop-color="#FFFFFF" stop-opacity="0.9"/>
      <stop offset="35%" stop-color="#FFFFFF" stop-opacity="0.25"/>
      <stop offset="100%" stop-color="#FFFFFF" stop-opacity="0"/>
    </radialGradient>
  </defs>

  <!-- Glass panel -->
  <g filter="url(#innerShadow)">
    <rect x="64" y="64" width="896" height="896" rx="220" fill="url(#bgGrad)"/>
  <rect x="64" y="64" width="896" height="896" rx="220" fill="url(#centerGlow)"/>
  <rect x="64" y="64" width="896" height="896" rx="220" fill="url(#bgSpec)" style="mix-blend-mode:overlay"/>
    <rect x="64" y="64" width="896" height="896" rx="220" fill="url(#edgeGlow)" style="mix-blend-mode:overlay"/>
    <rect x="64" y="64" width="896" height="896" rx="220" stroke="#FFFFFF" stroke-opacity="0.40" stroke-width="4" fill="none"/>
  </g>

  <!-- Scaled-down bezel and dial (30% smaller radius) -->
  <!-- Original outer bezel r=350 → 245 -->
  <circle cx="512" cy="512" r="245" fill="url(#bezelGrad)"/>
  <circle cx="512" cy="512" r="245" fill="url(#bezelSheen)" style="mix-blend-mode:overlay"/>
  <!-- Inner glow ring original r=346 → 242 -->
  <circle cx="512" cy="512" r="242" fill="#FFFFFF" fill-opacity="0.55"/>
  <!-- Dial original r=328 → 229.6 (~230) -->
  <circle cx="512" cy="512" r="230" fill="url(#dialGrad)"/>
  <circle cx="512" cy="512" r="230" fill="url(#dialInnerShadow)"/>

  <!-- Hour markers (SBB style: thick) -->
  <g stroke="#12161A" stroke-linecap="butt" stroke-width="30">
    <!-- Hour markers adjusted inward: original y start 152/ end 212. Scale distances from center (512) by 0.7. Distance was 360 and 300 -> new distances 252 and 210 => y1=260, y2=302 -->
    <line x1="512" y1="260" x2="512" y2="302"/>
    <line x1="512" y1="722" x2="512" y2="764"/>
    <line x1="260" y1="512" x2="302" y2="512"/>
    <line x1="722" y1="512" x2="764" y2="512"/>
    <line x1="512" y1="260" x2="512" y2="302" transform="rotate(30 512 512)"/>
    <line x1="512" y1="260" x2="512" y2="302" transform="rotate(60 512 512)"/>
    <line x1="512" y1="260" x2="512" y2="302" transform="rotate(120 512 512)"/>
    <line x1="512" y1="260" x2="512" y2="302" transform="rotate(150 512 512)"/>
    <line x1="512" y1="260" x2="512" y2="302" transform="rotate(210 512 512)"/>
    <line x1="512" y1="260" x2="512" y2="302" transform="rotate(240 512 512)"/>
    <line x1="512" y1="260" x2="512" y2="302" transform="rotate(300 512 512)"/>
    <line x1="512" y1="260" x2="512" y2="302" transform="rotate(330 512 512)"/>
  </g>

  <!-- Minute markers (subtle, thinner) -->
  <g stroke="#272D31" stroke-linecap="butt" opacity="0.55">
    <!-- Define two lengths: minor ticks (short) and major-minute ticks (long every 5 minutes but not overlapping hour markers) -->
    <!-- Short tick (base) -->
    <line x1="512" y1="268" x2="512" y2="282" stroke-width="6"/>
    <!-- Repeat short ticks for each 6° except multiples of 30° (hour markers) -->
    <line x1="512" y1="268" x2="512" y2="282" stroke-width="6" transform="rotate(6 512 512)"/>
    <line x1="512" y1="268" x2="512" y2="282" stroke-width="6" transform="rotate(12 512 512)"/>
    <line x1="512" y1="268" x2="512" y2="282" stroke-width="6" transform="rotate(18 512 512)"/>
    <line x1="512" y1="268" x2="512" y2="282" stroke-width="6" transform="rotate(24 512 512)"/>
    <line x1="512" y1="268" x2="512" y2="282" stroke-width="6" transform="rotate(36 512 512)"/>
    <line x1="512" y1="268" x2="512" y2="282" stroke-width="6" transform="rotate(42 512 512)"/>
    <line x1="512" y1="268" x2="512" y2="282" stroke-width="6" transform="rotate(48 512 512)"/>
    <line x1="512" y1="268" x2="512" y2="282" stroke-width="6" transform="rotate(54 512 512)"/>
    <line x1="512" y1="268" x2="512" y2="282" stroke-width="6" transform="rotate(66 512 512)"/>
    <line x1="512" y1="268" x2="512" y2="282" stroke-width="6" transform="rotate(72 512 512)"/>
    <line x1="512" y1="268" x2="512" y2="282" stroke-width="6" transform="rotate(78 512 512)"/>
    <line x1="512" y1="268" x2="512" y2="282" stroke-width="6" transform="rotate(84 512 512)"/>
    <line x1="512" y1="268" x2="512" y2="282" stroke-width="6" transform="rotate(96 512 512)"/>
    <line x1="512" y1="268" x2="512" y2="282" stroke-width="6" transform="rotate(102 512 512)"/>
    <line x1="512" y1="268" x2="512" y2="282" stroke-width="6" transform="rotate(108 512 512)"/>
    <line x1="512" y1="268" x2="512" y2="282" stroke-width="6" transform="rotate(114 512 512)"/>
    <line x1="512" y1="268" x2="512" y2="282" stroke-width="6" transform="rotate(126 512 512)"/>
    <line x1="512" y1="268" x2="512" y2="282" stroke-width="6" transform="rotate(132 512 512)"/>
    <line x1="512" y1="268" x2="512" y2="282" stroke-width="6" transform="rotate(138 512 512)"/>
    <line x1="512" y1="268" x2="512" y2="282" stroke-width="6" transform="rotate(144 512 512)"/>
    <line x1="512" y1="268" x2="512" y2="282" stroke-width="6" transform="rotate(156 512 512)"/>
    <line x1="512" y1="268" x2="512" y2="282" stroke-width="6" transform="rotate(162 512 512)"/>
    <line x1="512" y1="268" x2="512" y2="282" stroke-width="6" transform="rotate(168 512 512)"/>
    <line x1="512" y1="268" x2="512" y2="282" stroke-width="6" transform="rotate(174 512 512)"/>
    <line x1="512" y1="268" x2="512" y2="282" stroke-width="6" transform="rotate(186 512 512)"/>
    <line x1="512" y1="268" x2="512" y2="282" stroke-width="6" transform="rotate(192 512 512)"/>
    <line x1="512" y1="268" x2="512" y2="282" stroke-width="6" transform="rotate(198 512 512)"/>
    <line x1="512" y1="268" x2="512" y2="282" stroke-width="6" transform="rotate(204 512 512)"/>
    <line x1="512" y1="268" x2="512" y2="282" stroke-width="6" transform="rotate(216 512 512)"/>
    <line x1="512" y1="268" x2="512" y2="282" stroke-width="6" transform="rotate(222 512 512)"/>
    <line x1="512" y1="268" x2="512" y2="282" stroke-width="6" transform="rotate(228 512 512)"/>
    <line x1="512" y1="268" x2="512" y2="282" stroke-width="6" transform="rotate(234 512 512)"/>
    <line x1="512" y1="268" x2="512" y2="282" stroke-width="6" transform="rotate(246 512 512)"/>
    <line x1="512" y1="268" x2="512" y2="282" stroke-width="6" transform="rotate(252 512 512)"/>
    <line x1="512" y1="268" x2="512" y2="282" stroke-width="6" transform="rotate(258 512 512)"/>
    <line x1="512" y1="268" x2="512" y2="282" stroke-width="6" transform="rotate(264 512 512)"/>
    <line x1="512" y1="268" x2="512" y2="282" stroke-width="6" transform="rotate(276 512 512)"/>
    <line x1="512" y1="268" x2="512" y2="282" stroke-width="6" transform="rotate(282 512 512)"/>
    <line x1="512" y1="268" x2="512" y2="282" stroke-width="6" transform="rotate(288 512 512)"/>
    <line x1="512" y1="268" x2="512" y2="282" stroke-width="6" transform="rotate(294 512 512)"/>
    <line x1="512" y1="268" x2="512" y2="282" stroke-width="6" transform="rotate(306 512 512)"/>
    <line x1="512" y1="268" x2="512" y2="282" stroke-width="6" transform="rotate(312 512 512)"/>
    <line x1="512" y1="268" x2="512" y2="282" stroke-width="6" transform="rotate(318 512 512)"/>
    <line x1="512" y1="268" x2="512" y2="282" stroke-width="6" transform="rotate(324 512 512)"/>
    <line x1="512" y1="268" x2="512" y2="282" stroke-width="6" transform="rotate(336 512 512)"/>
    <line x1="512" y1="268" x2="512" y2="282" stroke-width="6" transform="rotate(342 512 512)"/>
    <line x1="512" y1="268" x2="512" y2="282" stroke-width="6" transform="rotate(348 512 512)"/>
    <line x1="512" y1="268" x2="512" y2="282" stroke-width="6" transform="rotate(354 512 512)"/>
  </g>

  <!-- Hands (10:10:30 aesthetic) -->
  <g stroke-linecap="round" stroke-linejoin="round">
    <!-- Hands scaled: shorten lengths proportionally -->
    <line x1="512" y1="512" x2="512" y2="400" stroke="url(#handHour)" stroke-width="44" transform="rotate(305 512 512)"/>
    <line x1="512" y1="512" x2="512" y2="290" stroke="url(#handMinute)" stroke-width="32" transform="rotate(60 512 512)"/>
  <!-- Extended second hand slightly beyond previous (was y2=270) -->
  <line x1="512" y1="512" x2="512" y2="255" stroke="url(#secondHand)" stroke-width="16" transform="rotate(180 512 512)"/>
  <circle cx="512" cy="247" r="26" fill="url(#secondHand)" transform="rotate(180 512 512)"/>
  </g>

  <!-- Center cap -->
  <circle cx="512" cy="512" r="24" fill="#FFFFFF" stroke="#0E1216" stroke-width="6"/>

  <!-- Liquid glass specular overlays -->
  <circle cx="512" cy="512" r="230" fill="url(#specular)" style="mix-blend-mode:screen" opacity="0.55"/>
  <!-- Dial shadow separation ring -->
  <circle cx="512" cy="512" r="232" stroke="#000" stroke-opacity="0.18" stroke-width="4" fill="none" style="mix-blend-mode:multiply"/>
  <path d="M180 300 C 320 180, 704 180, 844 300 L 844 360 C 704 240, 320 240, 180 360 Z" fill="#FFFFFF" fill-opacity="0.40"/>
  <path d="M240 700 C 380 860, 644 880, 780 760 C 640 860, 380 840, 240 700 Z" fill="#FFFFFF" fill-opacity="0.14"/>
</svg>
